<?xml version="1.0" encoding="UTF-8"?>
<svg id="Layer_1" data-name="Layer 1" xmlns="http://www.w3.org/2000/svg" viewBox="0 0 203.23 291.98">
  <defs>
    <style>
      .cls-1 {
        fill: #5d59a1;
      }

      .cls-1, .cls-2 {
        stroke-width: 0px;
      }

      .cls-2 {
        fill: #fcd558;
      }
    </style>
  </defs>
  <path class="cls-2" d="M86.85,125.48c-2.03-.55-3.12,1.23-4.66,1.89-5.41,2.29-9.22-.09-8.86-6,.4-6.64,1.84-13.16,3.16-19.69,1.24-6.1,3.36-12.18,1.31-18.52-.73-2.25-1.84-4.23-3.67-5.89-6.79-6.18-12.25-13.66-19.33-19.59-2.42-2.03-3.8-5.02-2.85-8.66.97-3.67,3.61-4.69,6.82-5.22,4.29-.71,8.52-1.42,12.94-1.68,7.42-.44,15.03-1.78,21.68-5.47,3.33-1.85,5.11-5.6,6.74-9.14,3.62-7.83,7.2-15.69,11.07-23.4,2.66-5.31,10.45-5.49,13.51-.42,3.62,5.99,6.83,12.18,9.42,18.73,2.03,5.14,4.72,10.09,9.04,13.78,1.9,1.63,4.55,1.75,6.88,2.31,5.14,1.22,10.4,1.89,15.55,3.08,5.08,1.18,10.12,2.45,15.3,3.21,3.61.53,6.65,7.55,2.76,11.6-5.38,5.6-11,11-16.66,16.35-4.15,3.92-8.17,8.43-9.03,14.49-.32,2.24.32,4.65.71,6.95.92,5.45,1.92,10.9,2.96,16.33.72,3.75,1.45,7.48,1.39,11.32-.08,4.96-4.08,8.02-8.67,6.3-7.08-2.65-13.66-6.42-20.38-9.86-3.63-1.86-7.16-3.9-10.85-5.64-4.89-2.31-8.42,1.14-12.21,3.26-.63.35-1.13.96-1.68,1.45-2.39-5.19-4.73-5.5-9.49-2.72-5,2.92-8.67,7.16-12.91,10.85Z"/>
  <path class="cls-1" d="M86.85,125.48c4.23-3.69,7.91-7.94,12.91-10.85,4.76-2.78,7.1-2.48,9.49,2.72-2.57,6.5-5.66,12.75-8.8,19-3.22,6.42-5.51,13.29-8.57,19.8-8.62,18.35-17.19,36.72-26.22,54.86-9.04,18.14-17.37,36.62-26.43,54.75-3.21,6.42-5.88,13.15-9.67,19.24-2.9,4.66-7.79,7.11-13.22,6.98-5.32-.12-9.93-2.46-13.12-7.1-5.88-8.54-2.79-16.25,1.98-23.89,6.46-10.34,12.44-20.97,18.53-31.51,5.21-9.02,10.49-18.01,15.64-27.07,7.27-12.8,14.88-25.41,22.4-38.06,5.59-9.41,11.14-18.85,16.98-28.11,2.38-3.78,4.68-7.72,8.11-10.75Z"/>
  <path class="cls-2" d="M139.72,173.02c-.1,1.09-.64,1.52-1.38,1.8-5.25,1.96-8.62,5.75-10.68,10.87-.25.62-.99,1.36-1.58,1.43-.74.09-1.09-.81-1.3-1.55-1.59-5.62-6-8.46-10.84-10.82-.81-.4-1.74-.64-1.58-1.7.11-.76.82-1.12,1.62-1.28,5.21-1.01,7.82-4.95,10.24-9.12.59-1.02.73-2.51,2.22-2.75,1.92-.31,1.69,1.62,2.16,2.51,1.92,3.6,3.9,6.93,8.16,8.27,1.16.37,2.05,1.59,2.97,2.34Z"/>
  <path class="cls-2" d="M32.01,109.79c-1.16-2.13-1.77-2.93-2.06-3.83-1.67-5.25-5.6-8.22-10.37-10.32-.68-.3-1.48-.27-1.54-1.26-.06-1.01.75-1.22,1.42-1.44,5.08-1.65,8.63-4.85,10.53-9.91.76-2.01,2.23-.93,2.78.01,3.03,5.19,7.3,8.89,14.19,11.34-7.87,2.89-13.42,6.69-14.96,15.41Z"/>
  <path class="cls-2" d="M179.23,25.91c-1.14-.08-1.58-.63-1.9-1.34-2.23-4.91-5.06-9.2-10.85-10.44-.81-.17-1.82-.47-1.79-1.54.03-.99,1.07-.84,1.72-1.06,4.97-1.75,8.52-5.03,10.93-9.7,1.11-2.15,2.21-2.29,3.4.18,2,4.14,4.27,8.05,9.36,9.23.8.19,2.97,1.96.59,3.03-5.08,2.27-8.84,5.57-10.55,10.99-.11.34-.7.53-.9.67Z"/>
  <path class="cls-2" d="M203.23,90.38c-.26.95-1.01,1.56-1.87,2.08-2.27,1.38-4.16,3.18-5.18,5.63-1.04,2.5-2.21,1.6-2.95.1-1.48-3-3.68-5.09-6.57-6.66-1.12-.61-1.76-1.38.19-2.19,2.53-1.05,4.63-2.76,5.91-5.33.81-1.62,1.7-2.18,3.08-.3,1.7,2.33,3.48,4.66,6.42,5.64.44.15.99.28.97,1.03Z"/>
</svg>